<svg width="1295" height="540" viewBox="0 0 1295 540" fill="none" xmlns="http://www.w3.org/2000/svg">
<g clip-path="url(#clip0)">
<path d="M1210.07 45.6292C1210.06 38.2154 1212 30.9295 1215.7 24.5034C1219.38 17.984 1224.75 12.5831 1231.26 8.87425C1237.7 5.14126 1245.01 3.17529 1252.45 3.17529C1259.89 3.17529 1267.2 5.14126 1273.64 8.87425C1280.15 12.5145 1285.54 17.8757 1289.2 24.3709C1292.99 30.8107 1294.96 38.1582 1294.9 45.6292C1294.94 52.9373 1293.07 60.1287 1289.47 66.4901C1285.81 72.9568 1280.51 78.3467 1274.11 82.1193C1269.25 84.9749 1263.87 86.8382 1258.29 87.6012C1252.71 88.3641 1247.03 88.0116 1241.58 86.5641C1236.14 85.1165 1231.03 82.6026 1226.57 79.1682C1222.1 75.7338 1218.36 71.447 1215.56 66.5564C1211.95 60.176 1210.05 52.9638 1210.07 45.6292V45.6292ZM1216.03 45.6292C1216.04 52.0344 1217.73 58.324 1220.94 63.8681C1224.15 69.4121 1228.76 74.016 1234.3 77.2186C1239.84 80.4285 1246.12 82.1191 1252.52 82.1191C1258.91 82.1191 1265.2 80.4285 1270.73 77.2186C1276.22 74.0264 1280.78 69.4621 1283.97 63.9736C1287.27 58.4512 1288.99 52.1282 1288.94 45.6955C1288.91 39.327 1287.17 33.0831 1283.91 27.616C1280.69 22.1476 1276.13 17.5893 1270.66 14.3709C1265.1 11.1625 1258.8 9.47333 1252.38 9.47333C1245.97 9.47333 1239.66 11.1625 1234.11 14.3709C1228.62 17.5631 1224.05 22.1275 1220.86 27.616C1217.65 33.0733 1215.98 39.2983 1216.03 45.6292V45.6292ZM1269.67 35.3643C1269.75 38.2003 1268.91 40.986 1267.28 43.3113C1265.65 45.6657 1263.34 47.4674 1260.66 48.4769L1273.91 70.7948H1264.44L1252.78 50.9272H1245.17V70.7948H1236.89V20.7286H1251.59C1256.44 20.321 1261.29 21.6082 1265.3 24.3709C1266.82 25.7851 1268.01 27.5269 1268.77 29.4653C1269.52 31.4037 1269.83 33.4885 1269.67 35.563V35.3643ZM1245.23 43.9074H1251.32C1253.94 44.0393 1256.52 43.1891 1258.54 41.5233C1259.43 40.8107 1260.14 39.9005 1260.61 38.8655C1261.08 37.8305 1261.3 36.6995 1261.26 35.563C1261.37 34.4413 1261.21 33.3093 1260.8 32.2612C1260.38 31.2131 1259.72 30.279 1258.87 29.5365C1256.58 28.1138 1253.88 27.464 1251.19 27.6822H1245.23V43.9074Z" fill="white"/>
<path opacity="0.92" d="M1167.62 85.5629V0H954.37V85.5629H1002.85L916.489 192.119L829.999 85.5629H878.675V0H719.403V95.7616L857.019 265.43L719.403 435.232V452.318H785.032V540H878.675V452.318H824.503L916.556 338.742L1008.67 452.318H954.37V540H1167.62V452.318H1127.62L975.96 265.43L1121.79 85.5629H1167.62Z" fill="white"/>
<path d="M664.436 0V85.5629H711.059L719.403 95.7616V0H664.436Z" fill="white"/>
<path d="M719.403 452.319V435.233L705.562 452.319H664.436V540.001H785.032V452.319H719.403Z" fill="white"/>
<path d="M322.185 412.119H397.88C389.023 433.964 376.479 454.125 360.794 471.722C344.618 454.203 331.559 434.044 322.185 412.119" fill="white"/>
<path d="M360.794 189.404C338.785 213.319 322.682 242.055 313.774 273.312C317.334 280.213 320.217 287.444 322.383 294.901H397.218C399.487 287.525 402.459 280.385 406.092 273.576C397.697 242.397 382.193 213.586 360.794 189.404V189.404ZM322.383 294.901C325.776 306.541 327.493 318.605 327.483 330.729C327.504 342.164 325.967 353.55 322.913 364.57H396.489C393.308 353.572 391.703 342.178 391.721 330.729C391.71 318.59 393.496 306.517 397.019 294.901H322.383ZM322.383 294.901H309.138C307.077 306.732 306.058 318.72 306.092 330.729C306.086 342.064 306.994 353.381 308.807 364.57H323.178C326.232 353.55 327.769 342.164 327.748 330.729C327.672 318.592 325.866 306.528 322.383 294.901V294.901Z" fill="white"/>
<path opacity="0.92" d="M711.059 85.3642H664.701V0H576.423V85.3642H633.31V159.272C598.842 134.551 557.449 121.34 515.032 121.523C486.015 121.485 457.31 127.502 430.751 139.191C404.193 150.879 380.366 167.982 360.794 189.404C382.193 213.586 397.697 242.396 406.092 273.576C416.47 253.964 431.998 237.552 451.006 226.105C470.015 214.658 491.784 208.609 513.973 208.609C529.852 208.685 545.558 211.917 560.177 218.118C574.796 224.318 588.036 233.363 599.128 244.726C610.22 256.089 618.943 269.544 624.788 284.308C630.633 299.073 633.485 314.852 633.178 330.728V331.391C633.397 347.212 630.479 362.92 624.594 377.607C618.709 392.295 609.973 405.671 598.889 416.964C587.806 428.256 574.596 437.242 560.021 443.401C545.446 449.56 529.795 452.77 513.973 452.848C491.784 452.848 470.015 446.799 451.006 435.352C431.998 423.905 416.47 407.493 406.092 387.881V387.881C402.076 380.472 398.857 372.658 396.489 364.57H308.542C311.185 380.905 315.764 396.868 322.185 412.119H397.88C389.023 433.964 376.479 454.125 360.794 471.722C380.336 493.204 404.15 510.369 430.71 522.115C457.27 533.861 485.991 539.93 515.032 539.934C543.126 540.079 570.938 534.33 596.672 523.06C622.406 511.79 645.491 495.248 664.436 474.503V452.318H705.562L719.403 435.232V95.7616L711.059 85.3642ZM633.31 502.185V540H664.436V474.503C655.039 484.775 644.608 494.051 633.31 502.185V502.185ZM313.774 273.311C311.759 280.416 310.124 287.623 308.873 294.901H322.118C320.037 287.453 317.243 280.223 313.774 273.311V273.311Z" fill="white"/>
<path opacity="0.92" d="M410.662 294.9C409.47 287.682 407.947 280.529 406.092 273.576C402.459 280.384 399.487 287.525 397.218 294.9C393.695 306.516 391.909 318.589 391.92 330.728C391.838 342.167 393.376 353.561 396.49 364.569H410.794C414.456 341.49 414.456 317.979 410.794 294.9H410.662ZM209.205 121.523C159.929 121.525 112.234 138.916 74.5215 170.632C36.809 202.348 11.4977 246.354 3.04589 294.9H91.4565C99.1678 269.96 114.664 248.145 135.675 232.652C156.686 217.159 182.106 208.803 208.211 208.807C230.078 208.733 251.534 214.746 270.178 226.173C288.821 237.6 303.917 253.991 313.774 273.509C322.682 242.253 338.785 213.517 360.794 189.602C341.853 168.089 318.523 150.882 292.375 139.139C266.228 127.396 237.868 121.389 209.205 121.523V121.523ZM297.682 412.119C286.601 424.973 272.863 435.271 257.417 442.303C241.97 449.334 225.183 452.932 208.211 452.847C181.726 452.839 155.96 444.226 134.795 428.304C113.629 412.382 98.2104 390.014 90.8605 364.569H308.543C306.729 353.38 305.821 342.063 305.827 330.728C305.793 318.719 306.812 306.731 308.874 294.9H3.04589C-0.797523 317.964 -0.797523 341.505 3.04589 364.569V364.569C11.0891 413.473 36.2224 457.937 73.9733 490.049C111.724 522.161 159.644 539.838 209.205 539.933C237.853 540.092 266.203 534.116 292.35 522.407C318.497 510.699 341.834 493.529 360.794 472.052C344.618 454.534 331.559 434.375 322.185 412.45L297.682 412.119Z" fill="white"/>
</g>
<defs>
<clipPath id="clip0">
<rect width="1294.9" height="540" fill="white"/>
</clipPath>
</defs>
</svg>
