<svg width="652px" height="270px" xmlns="http://www.w3.org/2000/svg" viewBox="0 0 652 270"><defs><style>.cls-1{fill:#209fda;}.cls-2{fill:#026ba4;}.cls-3{fill:#78212e;}.cls-4{fill:#8a8c8f;}.cls-5{fill:#b72768;}</style></defs><title>edx-logo-registered</title><polygon class="cls-1" points="583.41 42.84 583.41 0.09 476.88 0.09 476.88 42.84 501.09 42.84 457.93 96.08 414.73 42.84 439.05 42.84 439.05 0.09 359.46 0.09 359.46 47.95 428.24 132.72 359.46 217.57 359.46 226.1 392.25 226.1 392.25 269.91 439.05 269.91 439.05 226.1 411.96 226.1 457.96 169.35 457.97 169.35 504.02 226.1 476.88 226.1 476.88 269.91 583.41 269.91 583.41 226.1 563.43 226.1 487.66 132.72 560.51 42.84 583.41 42.84"/><polygon class="cls-2" points="332.01 0.09 332.01 42.84 355.31 42.84 359.46 47.95 359.46 0.09 332.01 0.09"/><polygon class="cls-2" points="359.46 226.1 359.46 217.57 352.54 226.1 332.01 226.1 332.01 269.91 392.25 269.91 392.25 226.1 359.46 226.1"/><path class="cls-3" d="M164.47,209.06H202.3a103.83,103.83,0,0,1-18.55,30,104.51,104.51,0,0,1-19.28-30" transform="translate(-3.47 -3.04)"/><path class="cls-3" d="M183.75,97.77a104.15,104.15,0,0,0-23.48,41.93,61.32,61.32,0,0,1,4.29,10.78H202a60,60,0,0,1,4.4-10.62A104.52,104.52,0,0,0,183.75,97.77Zm-19.19,52.71a64.25,64.25,0,0,1,.28,34.85h36.83a61.33,61.33,0,0,1,.3-34.85Zm0,0h-6.75a105.16,105.16,0,0,0-.17,34.85h7.2a64.25,64.25,0,0,0-.28-34.85Z" transform="translate(-3.47 -3.04)"/><path class="cls-4" d="M358.78,45.88h-23.3V3.14h-44V45.88h28.42V82.73A100.59,100.59,0,0,0,260.8,63.87a104.21,104.21,0,0,0-77.05,33.9,104.52,104.52,0,0,1,22.62,42.09,61,61,0,0,1,53.93-32.47c33.7,0,59.61,27.32,59.61,61v.34c-.17,33.54-26,60.68-59.61,60.68A61,61,0,0,1,206.37,197h0a60.41,60.41,0,0,1-4.7-11.62h-44a102.06,102.06,0,0,0,2.63,11.78,103.67,103.67,0,0,0,4.2,11.95H202.3a103.83,103.83,0,0,1-18.55,30,104.21,104.21,0,0,0,77.05,33.9,100.27,100.27,0,0,0,74.68-32.71V229.15H356l6.92-8.54V51Zm-38.87,208.2V273h15.57V240.22A101,101,0,0,1,319.91,254.08ZM160.27,139.7a101.55,101.55,0,0,0-2.46,10.78h6.75A61.32,61.32,0,0,0,160.27,139.7Z" transform="translate(-3.47 -3.04)"/><path class="cls-5" d="M208.67,150.48c-.6-3.6-1.37-7.15-2.3-10.62a60,60,0,0,0-4.4,10.62,61.33,61.33,0,0,0-.3,34.85h7.16a111.59,111.59,0,0,0-.16-34.85ZM108,63.87A104.56,104.56,0,0,0,5,150.48H49.17a61,61,0,0,1,58.33-43.09,58.85,58.85,0,0,1,52.77,32.31,104.15,104.15,0,0,1,23.48-41.93A100.36,100.36,0,0,0,108,63.87Zm44.21,145.19a58.59,58.59,0,0,1-44.71,20.36,61,61,0,0,1-58.63-44.09H157.64a105.16,105.16,0,0,1,.17-34.85H5a105.88,105.88,0,0,0-.17,34.85h0A104.56,104.56,0,0,0,108,272.93,100.36,100.36,0,0,0,183.75,239a104.51,104.51,0,0,1-19.28-30Z" transform="translate(-3.47 -3.04)"/><path class="cls-1" d="M613,24.27a21,21,0,0,1,2.82-10.58,20.65,20.65,0,0,1,7.76-7.79,21.22,21.22,0,0,1,31.87,18.37A21.17,21.17,0,0,1,645,42.53a21.26,21.26,0,0,1-29.28-7.79A20.9,20.9,0,0,1,613,24.27Zm3,0a18.29,18.29,0,0,0,18.26,18.26,17.76,17.76,0,0,0,9.12-2.46A18.38,18.38,0,0,0,650,33.43a18.21,18.21,0,0,0,0-18.28,18.49,18.49,0,0,0-6.65-6.67A17.68,17.68,0,0,0,634.23,6a17.87,17.87,0,0,0-9.12,2.45,18.49,18.49,0,0,0-6.67,6.65A17.68,17.68,0,0,0,616,24.27Zm26.87-5.14a6.87,6.87,0,0,1-1.2,4,7.17,7.17,0,0,1-3.37,2.58L645,36.86h-4.74l-5.84-10h-3.81v10h-4.18V11.71h7.37c3.12,0,5.42.61,6.87,1.83A6.89,6.89,0,0,1,642.84,19.13Zm-12.25,4.26h3a5.42,5.42,0,0,0,3.63-1.17,3.74,3.74,0,0,0,1.36-3,3.56,3.56,0,0,0-1.21-3,6.42,6.42,0,0,0-3.84-.92h-3Z" transform="translate(-3.47 -3.04)"/></svg>